<?xml version="1.0" encoding="UTF-8"?> <svg xmlns="http://www.w3.org/2000/svg" width="60" height="60" viewBox="0 0 60 60" fill="none"><path fill-rule="evenodd" clip-rule="evenodd" d="M56.1661 23.4372C56.1661 22.2481 55.1844 21.278 53.9855 21.278C53.3863 21.278 52.841 21.5185 52.448 21.9104L43.0831 29.9682V23.4372C43.0831 22.2481 42.1013 21.278 40.9022 21.278C40.3031 21.278 39.7579 21.5185 39.3649 21.9104L30 29.9682V23.4372C30 22.2481 29.0183 21.278 27.8196 21.278C27.2201 21.278 26.6749 21.5185 26.282 21.9104L16.8192 30.0437L14.7362 6.23254C14.7362 4.9027 13.6674 3.83386 12.3375 3.83386H8.41294C7.08322 3.83386 6.01426 4.9027 6.01426 6.23254L3.83386 51.8053C3.83386 54.2147 5.78554 56.1661 8.19466 56.1661H51.8052C54.2145 56.1661 56.166 54.2147 56.166 51.8053V23.4372H56.1661ZM24.5489 37.4901V39.9536C24.5489 41.0771 23.6331 41.9925 22.5098 41.9925H20.046C18.9229 41.9925 18.0072 41.0771 18.0072 39.9536V37.4901C18.0072 36.3668 18.9228 35.4512 20.046 35.4512H22.5098C23.6331 35.4512 24.5489 36.3668 24.5489 37.4901ZM37.6319 37.4901V39.9536C37.6319 41.0771 36.7163 41.9925 35.5929 41.9925H33.1293C32.0061 41.9925 31.0904 41.0771 31.0904 39.9536V37.4901C31.0904 36.3668 32.0061 35.4512 33.1293 35.4512H35.5929C36.7163 35.4512 37.6319 36.3668 37.6319 37.4901ZM50.7149 37.4901V39.9536C50.7149 41.0771 49.7993 41.9925 48.6759 41.9925H46.2125C45.089 41.9925 44.1735 41.0771 44.1735 39.9536V37.4901C44.1735 36.3668 45.089 35.4512 46.2125 35.4512H48.6759C49.7993 35.4512 50.7149 36.3668 50.7149 37.4901Z" fill="#FAA61A"></path></svg> 