<?xml version="1.0" encoding="UTF-8"?> <svg xmlns="http://www.w3.org/2000/svg" width="61" height="61" viewBox="0 0 61 61" fill="none"><path d="M30.5 31.6437C37.7437 31.6437 43.5896 25.4166 43.5896 17.6646H17.4104C17.4104 25.2896 23.2562 31.6437 30.5 31.6437Z" fill="#FAA61A"></path><path d="M45.8771 12.8354C44.4792 7.87913 41.0479 3.93954 36.6 1.90621L33.4229 10.1666V0.889543C32.5333 0.762459 31.5167 0.635376 30.5 0.635376C29.4833 0.635376 28.5937 0.762459 27.5771 0.889543V10.1666L24.4 1.90621C19.9521 3.81246 16.5208 7.87913 15.1229 12.8354H13.4708V15.1229H47.5292V12.8354H45.8771Z" fill="#FAA61A"></path><path d="M42.9541 39.65V60.3646H56.9333C56.9333 50.0708 50.9604 41.0479 42.4458 36.7271C42.8271 37.6166 42.9541 38.6333 42.9541 39.65Z" fill="#FAA61A"></path><path d="M37.9979 34.9478C35.5834 34.3124 33.1688 33.8041 30.5 33.8041C27.8313 33.8041 25.4167 34.1853 23.0021 34.9478C21.4771 35.9645 20.5875 37.7437 20.5875 39.6499V60.3645H40.5396V39.6499C40.4125 37.7437 39.5229 35.9645 37.9979 34.9478Z" fill="#FAA61A"></path><path d="M18.0458 39.65C18.0458 38.6333 18.3 37.6166 18.5542 36.7271C9.91249 41.0479 3.93958 50.0708 3.93958 60.3646H17.9187V39.65H18.0458Z" fill="#FAA61A"></path></svg> 