<?xml version="1.0" encoding="UTF-8"?> <svg xmlns="http://www.w3.org/2000/svg" width="38" height="38" viewBox="0 0 38 38" fill="none"><path d="M37.8623 21.0652C37.9312 20.3768 38 19.6884 38 19C38 18.3116 37.9312 17.6232 37.8623 16.9348L32.6993 15.0761C32.4239 14.0435 32.0109 13.0797 31.4601 12.1159L33.8007 7.15942C32.9058 6.05797 31.942 5.0942 30.8406 4.19928L25.8841 6.53986C24.9203 6.05797 23.9565 5.64493 22.9239 5.30072L21.0652 0.137681C20.3768 0.0688406 19.6884 0 19 0C18.3116 0 17.6232 0.0688406 16.9348 0.137681L15.0761 5.30072C14.0435 5.57609 13.0797 5.98913 12.1159 6.53986L7.15942 4.19928C6.05797 5.0942 5.0942 6.05797 4.19928 7.15942L6.53986 12.1159C6.05797 13.0797 5.64493 14.0435 5.30072 15.0761L0.137681 16.9348C0.0688406 17.6232 0 18.3116 0 19C0 19.6884 0.0688406 20.4457 0.137681 21.0652L5.30072 22.9239C5.57609 23.9565 5.98913 24.9203 6.53986 25.8841L4.19928 30.8406C5.0942 31.942 6.05797 32.9058 7.15942 33.8007L12.1159 31.4601C13.0109 32.0109 14.0435 32.3551 15.0761 32.6993L16.9348 37.8623C17.6232 37.9312 18.3116 38 19 38C19.6884 38 20.4457 37.9312 21.0652 37.8623L22.9239 32.6993C23.9565 32.4239 24.9203 32.0109 25.8841 31.4601L30.8406 33.8007C31.942 32.9058 32.9058 31.942 33.8007 30.8406L31.4601 25.8841C32.0109 24.9203 32.3551 23.9565 32.6993 22.9239L37.8623 21.0652ZM19 28.5C13.7681 28.5 9.5 24.2319 9.5 19C9.5 13.7681 13.7681 9.5 19 9.5C24.2319 9.5 28.5 13.7681 28.5 19C28.5 24.2319 24.2319 28.5 19 28.5Z" fill="#FAA61A"></path><path d="M23.75 19C23.75 21.6159 21.6159 23.75 19 23.75C16.3841 23.75 14.25 21.6159 14.25 19C14.25 16.3841 16.3841 14.25 19 14.25C21.6159 14.25 23.75 16.3841 23.75 19Z" fill="#FAA61A"></path></svg> 