<?xml version="1.0" encoding="UTF-8"?> <svg xmlns="http://www.w3.org/2000/svg" width="38" height="38" viewBox="0 0 38 38" fill="none"><path d="M10.2522 7.41219C12.3362 7.41219 14.0285 5.75734 14.0285 3.70995C14.0207 1.65485 12.3362 0 10.2522 0C8.16827 0 6.48385 1.65485 6.48385 3.70225C6.47601 5.74965 8.16827 7.41219 10.2522 7.41219Z" fill="#FAA61A"></path><path d="M37.297 6.26533C36.6389 5.72654 35.8085 5.85739 34.8526 5.85739C34.2337 5.85739 33.7245 5.36478 33.7245 4.74902V2.94793C33.7245 2.7555 33.5678 2.60156 33.3719 2.60156H30.4496C30.2538 2.60156 30.0971 2.7555 30.0971 2.94793V4.74902C30.0971 5.35708 29.5957 5.85739 28.9689 5.85739C27.9974 5.85739 27.1591 5.72654 26.501 6.28842C25.8821 6.81181 25.6157 7.74315 26.0075 8.58212L26.9554 10.6449C26.7517 11.0067 26.6342 11.4223 26.6342 11.8687C26.6342 12.9694 27.3315 13.9007 28.3108 14.2779C28.3735 14.6242 28.4205 14.9706 28.444 15.3247C26.8771 14.7782 25.6314 16.0867 24.7618 17.4721C23.7511 19.0885 22.6543 20.0352 21.4948 20.2969C21.3459 20.3277 21.1971 20.3431 21.0639 20.3585L21.8238 17.8878H21.8317C21.9257 17.9032 22.0275 17.9109 22.1215 17.9109C22.8893 17.9109 23.5631 17.3721 23.7041 16.6101C23.8451 15.8712 23.4142 15.1784 22.7326 14.8936L24.4484 9.29024C24.4719 9.21327 24.4249 9.12091 24.3466 9.09782C24.2682 9.07472 24.1899 9.11321 24.1585 9.18248L21.8238 14.6627L18.3531 14.0393L14.8589 8.85151C14.5534 8.40509 14.0598 8.18187 13.5506 8.17418L6.96959 8.15878C6.36633 8.16648 5.79441 8.49745 5.53587 9.07472L0.145721 20.651C-0.222502 21.4438 0.130052 22.3905 0.944842 22.7523C1.76747 23.1217 2.71544 22.7523 3.08367 21.9672L4.76025 18.3573L3.3187 25.0306C3.26386 25.2769 3.32654 25.5309 3.49106 25.7233C3.64775 25.9157 3.89062 26.0312 4.14133 26.0312H5.68473V36.0988C5.68473 37.1456 6.55436 38 7.61985 38C8.68535 38 9.55498 37.1456 9.55498 36.0988V26.0312H10.9652V36.0988C10.9652 37.1456 11.8348 38 12.9003 38C13.9658 38 14.8354 37.1456 14.8354 36.0988V26.0312H16.371C16.6295 26.0312 16.8646 25.9157 17.0291 25.7233C17.1858 25.5309 17.2485 25.2769 17.2015 25.0306L14.9608 14.732L16.0576 16.3561C16.3005 16.7178 16.6844 16.9641 17.1153 17.0411L20.5625 17.6569L19.5597 20.0044C19.0896 19.7812 17.7264 19.0577 16.7627 17.7184C16.6922 17.6261 16.5669 17.603 16.4729 17.6723C16.3788 17.7338 16.3553 17.8647 16.4259 17.957C17.4913 19.4349 18.9486 20.1815 19.403 20.3893L19.1836 20.8973C19.0112 21.3052 19.2071 21.7824 19.6223 21.9595C20.0454 22.1365 20.5233 21.9364 20.7035 21.5284C20.7113 21.5054 20.727 21.4746 20.7348 21.4515L20.9385 20.7818C21.1422 20.7741 21.3538 20.7587 21.581 20.7126C22.8502 20.4278 24.0332 19.4195 25.1065 17.703C25.8978 16.4407 27.0651 15.1707 28.444 15.7788C28.4518 16.764 28.303 17.7492 27.9818 18.696L26.5637 23.0909C26.1877 24.1762 27.026 25.3 28.1698 25.3H30.9354V32.4582H28.3422C26.8849 32.4582 26.8849 34.621 28.3422 34.621H35.5029C36.9601 34.621 36.9601 32.4582 35.5029 32.4582H33.1369V25.3H35.8398C36.9758 25.3 37.8141 24.1839 37.4459 23.0909L35.8555 18.6883C35.3697 17.2643 35.2679 15.7557 35.5264 14.301C36.5057 13.9238 37.203 12.9848 37.203 11.8918C37.203 11.4454 37.0776 11.0298 36.874 10.6603L37.8219 8.58212C38.2136 7.69696 37.9238 6.77333 37.297 6.26533ZM20.3823 21.1744C20.3039 21.3822 20.0767 21.49 19.8652 21.413C19.7634 21.3745 19.6772 21.3052 19.638 21.2052C19.591 21.1128 19.591 20.9974 19.6223 20.8973L19.7555 20.5355C19.9279 20.6048 20.1943 20.6972 20.5468 20.7357L20.3823 21.1744ZM20.6878 20.3508C20.3274 20.32 20.0532 20.2353 19.8965 20.1584L20.0297 19.8043C20.1081 19.5965 20.3353 19.4887 20.5468 19.5657C20.6487 19.6042 20.7348 19.6735 20.774 19.7735C20.821 19.8736 20.8289 19.9813 20.7897 20.0814L20.6878 20.3508Z" fill="#FAA61A"></path></svg> 